<svg width="253" height="40" viewBox="0 0 253 40" fill="none" xmlns="http://www.w3.org/2000/svg">
<path d="M14.2592 14.3841C13.1654 14.3841 12.1863 14.582 11.3217 14.9778C10.4675 15.3736 9.74355 15.9466 9.1498 16.6966C8.55605 17.4361 8.10292 18.3372 7.79042 19.3997C7.47792 20.4518 7.32167 21.6393 7.32167 22.9622C7.32167 24.733 7.57167 26.2591 8.07167 27.5403C8.57167 28.8111 9.33209 29.7903 10.3529 30.4778C11.3738 31.1549 12.6654 31.4934 14.2279 31.4934C15.1967 31.4934 16.1394 31.3997 17.056 31.2122C17.9727 31.0247 18.9206 30.7695 19.8998 30.4466V33.6341C18.9727 33.9986 18.0352 34.2643 17.0873 34.4309C16.1394 34.5976 15.0456 34.6809 13.806 34.6809C11.4727 34.6809 9.53521 34.1966 7.99355 33.2278C6.4623 32.2591 5.31646 30.8945 4.55605 29.1341C3.80605 27.3736 3.43105 25.3111 3.43105 22.9466C3.43105 21.2174 3.67063 19.6341 4.1498 18.1966C4.62896 16.7591 5.32688 15.5195 6.24355 14.4778C7.16021 13.4257 8.29042 12.6184 9.63417 12.0559C10.9883 11.483 12.5352 11.1966 14.2748 11.1966C15.4206 11.1966 16.5456 11.3268 17.6498 11.5872C18.7644 11.8372 19.7956 12.1966 20.7435 12.6653L19.431 15.7591C18.6394 15.3841 17.8113 15.0611 16.9467 14.7903C16.0821 14.5195 15.1863 14.3841 14.2592 14.3841ZM31.2123 16.7434C33.3998 16.7434 35.0508 17.2278 36.1654 18.1966C37.2904 19.1653 37.8529 20.6757 37.8529 22.7278V34.3684H35.2435L34.5404 31.9153H34.4154C33.9258 32.5403 33.4206 33.0559 32.8998 33.4622C32.379 33.8684 31.7748 34.1705 31.0873 34.3684C30.4102 34.5768 29.5821 34.6809 28.6029 34.6809C27.5717 34.6809 26.6498 34.4934 25.8373 34.1184C25.0248 33.733 24.3842 33.1497 23.9154 32.3684C23.4467 31.5872 23.2123 30.5976 23.2123 29.3997C23.2123 27.6184 23.8738 26.2799 25.1967 25.3841C26.53 24.4882 28.5404 23.9934 31.2279 23.8997L34.2279 23.7903V22.8841C34.2279 21.6861 33.9467 20.832 33.3842 20.3216C32.8321 19.8111 32.0508 19.5559 31.0404 19.5559C30.1758 19.5559 29.3373 19.6809 28.5248 19.9309C27.7123 20.1809 26.9206 20.4882 26.1498 20.8528L24.9623 18.2591C25.806 17.8111 26.7644 17.4466 27.8373 17.1653C28.9206 16.8841 30.0456 16.7434 31.2123 16.7434ZM34.2123 26.1028L31.9779 26.1809C30.1446 26.2434 28.8581 26.5559 28.1185 27.1184C27.379 27.6809 27.0092 28.4518 27.0092 29.4309C27.0092 30.2851 27.2644 30.9101 27.7748 31.3059C28.2852 31.6914 28.9571 31.8841 29.7904 31.8841C31.0613 31.8841 32.1133 31.5247 32.9467 30.8059C33.7904 30.0768 34.2123 29.0091 34.2123 27.6028V26.1028ZM54.6185 29.4309C54.6185 30.5664 54.3425 31.5247 53.7904 32.3059C53.2383 33.0872 52.431 33.6809 51.3685 34.0872C50.3165 34.483 49.0248 34.6809 47.4935 34.6809C46.2852 34.6809 45.2435 34.5924 44.3685 34.4153C43.504 34.2486 42.6863 33.9882 41.9154 33.6341V30.4622C42.7383 30.8476 43.6602 31.1809 44.681 31.4622C45.7123 31.7434 46.6863 31.8841 47.6029 31.8841C48.8113 31.8841 49.681 31.6966 50.2123 31.3216C50.7435 30.9361 51.0092 30.4257 51.0092 29.7903C51.0092 29.4153 50.8998 29.082 50.681 28.7903C50.4727 28.4882 50.0769 28.1809 49.4935 27.8684C48.9206 27.5455 48.0769 27.1601 46.9623 26.7122C45.8685 26.2747 44.9467 25.8372 44.1967 25.3997C43.4467 24.9622 42.879 24.4361 42.4935 23.8216C42.1081 23.1966 41.9154 22.3997 41.9154 21.4309C41.9154 19.8997 42.5196 18.7382 43.7279 17.9466C44.9467 17.1445 46.556 16.7434 48.556 16.7434C49.6185 16.7434 50.6185 16.8528 51.556 17.0716C52.504 17.2799 53.431 17.5872 54.3373 17.9934L53.181 20.7591C52.3998 20.4153 51.6133 20.1341 50.8217 19.9153C50.0404 19.6861 49.2435 19.5716 48.431 19.5716C47.4831 19.5716 46.7592 19.7174 46.2592 20.0091C45.7696 20.3007 45.5248 20.7174 45.5248 21.2591C45.5248 21.6653 45.6446 22.0091 45.8842 22.2903C46.1238 22.5716 46.5352 22.8528 47.1185 23.1341C47.7123 23.4153 48.5352 23.7643 49.5873 24.1809C50.6185 24.5768 51.5092 24.9934 52.2592 25.4309C53.0196 25.858 53.6029 26.3841 54.0092 27.0091C54.4154 27.6341 54.6185 28.4414 54.6185 29.4309ZM62.2592 17.0716V34.3684H58.5873V17.0716H62.2592ZM60.4467 10.4466C61.0092 10.4466 61.4935 10.5976 61.8998 10.8997C62.3165 11.2018 62.5248 11.7226 62.5248 12.4622C62.5248 13.1914 62.3165 13.7122 61.8998 14.0247C61.4935 14.3268 61.0092 14.4778 60.4467 14.4778C59.8633 14.4778 59.3685 14.3268 58.9623 14.0247C58.5665 13.7122 58.3685 13.1914 58.3685 12.4622C58.3685 11.7226 58.5665 11.2018 58.9623 10.8997C59.3685 10.5976 59.8633 10.4466 60.4467 10.4466ZM76.5404 16.7434C78.4883 16.7434 80.004 17.2486 81.0873 18.2591C82.181 19.2591 82.7279 20.8684 82.7279 23.0872V34.3684H79.056V23.7747C79.056 22.4309 78.78 21.4257 78.2279 20.7591C77.6758 20.082 76.8217 19.7434 75.6654 19.7434C73.9883 19.7434 72.8217 20.2591 72.1654 21.2903C71.5196 22.3216 71.1967 23.8164 71.1967 25.7747V34.3684H67.5248V17.0716H70.3842L70.8998 19.4153H71.1029C71.4779 18.8111 71.9415 18.3164 72.4935 17.9309C73.056 17.5351 73.681 17.2382 74.3685 17.0403C75.0665 16.8424 75.7904 16.7434 76.5404 16.7434ZM103.181 25.6809C103.181 27.1184 102.994 28.3945 102.619 29.5091C102.244 30.6236 101.697 31.5664 100.978 32.3372C100.259 33.0976 99.3946 33.6809 98.3842 34.0872C97.3738 34.483 96.2331 34.6809 94.9623 34.6809C93.7748 34.6809 92.6863 34.483 91.6967 34.0872C90.7071 33.6809 89.8477 33.0976 89.1185 32.3372C88.3998 31.5664 87.8425 30.6236 87.4467 29.5091C87.0508 28.3945 86.8529 27.1184 86.8529 25.6809C86.8529 23.7747 87.181 22.1601 87.8373 20.8372C88.504 19.5039 89.4519 18.4882 90.681 17.7903C91.9102 17.0924 93.3738 16.7434 95.0717 16.7434C96.6654 16.7434 98.0717 17.0924 99.2904 17.7903C100.509 18.4882 101.462 19.5039 102.15 20.8372C102.837 22.1705 103.181 23.7851 103.181 25.6809ZM90.6342 25.6809C90.6342 26.9414 90.7852 28.0195 91.0873 28.9153C91.3998 29.8111 91.879 30.4986 92.5248 30.9778C93.1706 31.4466 94.004 31.6809 95.0248 31.6809C96.0456 31.6809 96.879 31.4466 97.5248 30.9778C98.1706 30.4986 98.6446 29.8111 98.9467 28.9153C99.2488 28.0195 99.3998 26.9414 99.3998 25.6809C99.3998 24.4205 99.2488 23.3528 98.9467 22.4778C98.6446 21.5924 98.1706 20.9205 97.5248 20.4622C96.879 19.9934 96.0404 19.7591 95.0092 19.7591C93.4883 19.7591 92.379 20.2695 91.681 21.2903C90.9831 22.3111 90.6342 23.7747 90.6342 25.6809ZM119.806 34.3684H116.087V11.5247H128.994V14.6809H119.806V21.8059H128.4V24.9466H119.806V34.3684ZM136.447 17.0716V34.3684H132.775V17.0716H136.447ZM134.634 10.4466C135.197 10.4466 135.681 10.5976 136.087 10.8997C136.504 11.2018 136.712 11.7226 136.712 12.4622C136.712 13.1914 136.504 13.7122 136.087 14.0247C135.681 14.3268 135.197 14.4778 134.634 14.4778C134.051 14.4778 133.556 14.3268 133.15 14.0247C132.754 13.7122 132.556 13.1914 132.556 12.4622C132.556 11.7226 132.754 11.2018 133.15 10.8997C133.556 10.5976 134.051 10.4466 134.634 10.4466ZM153.337 29.4309C153.337 30.5664 153.061 31.5247 152.509 32.3059C151.957 33.0872 151.15 33.6809 150.087 34.0872C149.035 34.483 147.744 34.6809 146.212 34.6809C145.004 34.6809 143.962 34.5924 143.087 34.4153C142.223 34.2486 141.405 33.9882 140.634 33.6341V30.4622C141.457 30.8476 142.379 31.1809 143.4 31.4622C144.431 31.7434 145.405 31.8841 146.322 31.8841C147.53 31.8841 148.4 31.6966 148.931 31.3216C149.462 30.9361 149.728 30.4257 149.728 29.7903C149.728 29.4153 149.619 29.082 149.4 28.7903C149.191 28.4882 148.796 28.1809 148.212 27.8684C147.639 27.5455 146.796 27.1601 145.681 26.7122C144.587 26.2747 143.665 25.8372 142.915 25.3997C142.165 24.9622 141.598 24.4361 141.212 23.8216C140.827 23.1966 140.634 22.3997 140.634 21.4309C140.634 19.8997 141.238 18.7382 142.447 17.9466C143.665 17.1445 145.275 16.7434 147.275 16.7434C148.337 16.7434 149.337 16.8528 150.275 17.0716C151.223 17.2799 152.15 17.5872 153.056 17.9934L151.9 20.7591C151.119 20.4153 150.332 20.1341 149.54 19.9153C148.759 19.6861 147.962 19.5716 147.15 19.5716C146.202 19.5716 145.478 19.7174 144.978 20.0091C144.488 20.3007 144.244 20.7174 144.244 21.2591C144.244 21.6653 144.363 22.0091 144.603 22.2903C144.843 22.5716 145.254 22.8528 145.837 23.1341C146.431 23.4153 147.254 23.7643 148.306 24.1809C149.337 24.5768 150.228 24.9934 150.978 25.4309C151.738 25.858 152.322 26.3841 152.728 27.0091C153.134 27.6341 153.337 28.4414 153.337 29.4309ZM160.978 10.0559V16.1653C160.978 16.8007 160.957 17.4205 160.915 18.0247C160.884 18.6289 160.848 19.0976 160.806 19.4309H161.009C161.374 18.8268 161.822 18.332 162.353 17.9466C162.884 17.5507 163.478 17.2539 164.134 17.0559C164.801 16.858 165.509 16.7591 166.259 16.7591C167.582 16.7591 168.707 16.983 169.634 17.4309C170.561 17.8684 171.27 18.5507 171.759 19.4778C172.259 20.4049 172.509 21.608 172.509 23.0872V34.3684H168.837V23.7747C168.837 22.4309 168.561 21.4257 168.009 20.7591C167.457 20.082 166.603 19.7434 165.447 19.7434C164.332 19.7434 163.447 19.9778 162.79 20.4466C162.145 20.9049 161.681 21.5872 161.4 22.4934C161.119 23.3893 160.978 24.483 160.978 25.7747V34.3684H157.306V10.0559H160.978ZM181.322 10.0559V21.8059C181.322 22.3372 181.301 22.9205 181.259 23.5559C181.218 24.1809 181.176 24.7695 181.134 25.3216H181.212C181.483 24.957 181.806 24.5299 182.181 24.0403C182.566 23.5507 182.931 23.1236 183.275 22.7591L188.556 17.0716H192.775L185.853 24.5091L193.228 34.3684H188.915L183.384 26.7747L181.322 28.5403V34.3684H177.65V10.0559H181.322ZM202.775 16.7434C204.962 16.7434 206.613 17.2278 207.728 18.1966C208.853 19.1653 209.415 20.6757 209.415 22.7278V34.3684H206.806L206.103 31.9153H205.978C205.488 32.5403 204.983 33.0559 204.462 33.4622C203.941 33.8684 203.337 34.1705 202.65 34.3684C201.973 34.5768 201.145 34.6809 200.165 34.6809C199.134 34.6809 198.212 34.4934 197.4 34.1184C196.587 33.733 195.947 33.1497 195.478 32.3684C195.009 31.5872 194.775 30.5976 194.775 29.3997C194.775 27.6184 195.436 26.2799 196.759 25.3841C198.093 24.4882 200.103 23.9934 202.79 23.8997L205.79 23.7903V22.8841C205.79 21.6861 205.509 20.832 204.947 20.3216C204.395 19.8111 203.613 19.5559 202.603 19.5559C201.738 19.5559 200.9 19.6809 200.087 19.9309C199.275 20.1809 198.483 20.4882 197.712 20.8528L196.525 18.2591C197.369 17.8111 198.327 17.4466 199.4 17.1653C200.483 16.8841 201.608 16.7434 202.775 16.7434ZM205.775 26.1028L203.54 26.1809C201.707 26.2434 200.421 26.5559 199.681 27.1184C198.941 27.6809 198.572 28.4518 198.572 29.4309C198.572 30.2851 198.827 30.9101 199.337 31.3059C199.848 31.6914 200.52 31.8841 201.353 31.8841C202.624 31.8841 203.676 31.5247 204.509 30.8059C205.353 30.0768 205.775 29.0091 205.775 27.6028V26.1028Z" fill="#FF0000"/>
<path d="M232.89 3.60451L236.343 14.2304L236.567 14.9213H237.294L248.467 14.9213L239.428 21.4885L238.84 21.9155L239.065 22.6065L242.517 33.2324L233.478 26.6652L232.89 26.2382L232.303 26.6652L223.264 33.2324L226.716 22.6065L226.941 21.9155L226.353 21.4885L217.314 14.9213L228.487 14.9213H229.213L229.438 14.2304L232.89 3.60451Z" fill="black" stroke="#FF0000" stroke-width="2"/>
</svg>
