<svg width="35" height="35" viewBox="0 0 35 35" fill="none" xmlns="http://www.w3.org/2000/svg">
<path d="M23.9286 15.1125C23.9286 20.0746 19.8906 24.1125 14.9286 24.1125C9.96651 24.1125 5.92856 20.0746 5.92856 15.1125C5.92856 10.1505 9.96651 6.11252 14.9286 6.11252C19.8906 6.11252 23.9286 10.1505 23.9286 15.1125ZM34.2143 31.8268C34.2143 31.1438 33.933 30.4808 33.471 30.0188L26.5803 23.1282C28.2076 20.7777 29.0714 17.9652 29.0714 15.1125C29.0714 7.29779 22.7433 0.969666 14.9286 0.969666C7.11383 0.969666 0.785706 7.29779 0.785706 15.1125C0.785706 22.9273 7.11383 29.2554 14.9286 29.2554C17.7812 29.2554 20.5937 28.3915 22.9442 26.7643L29.8348 33.6348C30.2969 34.117 30.9598 34.3982 31.6429 34.3982C33.0491 34.3982 34.2143 33.2331 34.2143 31.8268Z" fill="white"/>
</svg>
